<?xml version="1.0" encoding="UTF-8" standalone="no"?>
<!-- Created with Inkscape (http://www.inkscape.org/) -->

<svg
   width="200mm"
   height="200mm"
   viewBox="0 0 200 200"
   version="1.1"
   id="svg1"
   xmlns="http://www.w3.org/2000/svg"
   xmlns:svg="http://www.w3.org/2000/svg">
  <defs
     id="defs1" />
  <g
     id="layer1">
    <path
       style="fill:#2b0000;stroke:#2b4155;stroke-width:4.10001;stroke-opacity:1"
       id="path6"
       d="m 15.79379,191.36906 c 4.370685,-3.29253 8.866668,-6.44312 13.042266,-9.98675 1.820955,-1.54535 3.571687,-3.1716 5.357532,-4.7574 11.265675,-9.96172 21.53304,-20.97241 31.633617,-32.09103 10.32577,-11.36651 9.842392,-10.89649 20.150365,-22.53855 3.435747,-3.9173 6.915359,-7.79655 10.307241,-11.75188 3.335919,-3.89008 6.588719,-7.85068 9.874889,-11.782881 8.92366,-10.67799 17.84919,-21.376719 26.2428,-32.481953 2.33058,-3.083491 4.55321,-6.247109 6.82982,-9.370661 8.46472,-11.83682 15.83463,-24.446319 21.78752,-37.723428 1.77085,-4.203029 0.96717,-2.213045 2.43083,-5.961926 0,0 -3.28677,-1.826553 -3.28677,-1.826553 v 0 c -1.37095,3.783808 -0.61323,1.775686 -2.29593,6.015735 -5.66816,13.38275 -12.92939,26.03766 -21.23029,37.962819 -2.24334,3.139379 -4.429,6.320788 -6.73002,9.41814 -8.29424,11.164718 -17.16233,21.894877 -26.05549,32.581733 -3.27584,3.936565 -6.518625,7.901325 -9.852351,11.788995 -3.392276,3.95595 -6.882702,7.82666 -10.324055,11.73999 -16.708392,18.75851 -33.360362,37.72432 -52.359768,54.23084 -1.820207,1.55729 -3.605382,3.15649 -5.460619,4.67188 -4.266291,3.48478 -8.832369,6.61251 -13.381574,9.71 z" />
    <path
       style="fill:#2b0000;stroke:#233442;stroke-width:4.10001;stroke-opacity:1"
       id="path7"
       d="m 23.722839,11.965094 c 2.521047,3.541205 4.885146,7.21561 7.251257,10.869044 5.462376,8.510779 11.136812,16.910128 17.506833,24.777487 1.905336,2.353204 3.910327,4.623943 5.865492,6.935917 14.840352,17.087469 32.071371,31.801286 49.382129,46.287998 14.87284,12.00137 30.19528,23.42687 45.37933,35.02659 10.20985,7.39983 20.49856,14.69053 30.78272,21.98794 3.53979,2.59251 7.21629,4.97432 10.91201,7.33236 0,0 3.60925,1.40381 3.60925,1.40381 v 0 c -3.77019,-2.4045 -7.56981,-4.76038 -11.17514,-7.41625 -10.37588,-7.3167 -20.74585,-14.64087 -31.03689,-22.07532 C 136.91637,125.45389 121.47969,114.00704 106.51064,101.95901 89.22123,87.515995 72.096248,72.901677 57.320399,55.809088 55.390629,53.513399 53.410691,51.258964 51.531093,48.922021 45.2551,41.11894 39.697069,32.776318 34.354058,24.31989 32.742187,21.788363 31.090351,19.291133 29.447458,16.781889 28.88765,15.926877 28.429222,15.00817 27.867424,14.154463 27.718213,13.92772 27.535306,13.725041 27.369248,13.51033 Z" />
  </g>
</svg>
